<svg width="513" height="62" viewBox="0 0 513 62" fill="none" xmlns="http://www.w3.org/2000/svg">
<path d="M32.5698 37.6495C32.5698 40.7399 30.4131 49.4033 16.8955 49.4033C3.9291 49.4033 0 39.7211 0 33.1942C0 28.2259 2.42609 16.6885 16.4895 16.6885C27.1736 16.6885 31.2186 23.5928 32.0587 28.4412H22.6329C22.6329 26.1156 20.8467 23.6536 16.2842 23.6536C13.5848 23.6536 10.6774 26.3156 10.6774 32.1135C10.6774 35.7436 11.7677 41.8028 16.9527 41.8028C20.137 41.8028 22.2186 40.2148 22.4191 37.6492L32.5698 37.6495Z" fill="#69C07F"/>
<path d="M72.0234 37.1399H82.1464C82.1464 47.7979 70.8343 49.33 66.156 49.33C61.4776 49.33 49.5549 46.4085 49.5549 33.1339C49.5549 19.86 59.8517 16.626 66.0434 16.626C75.611 16.626 80.0903 21.56 81.579 28.5617C81.9965 30.5056 82.1835 32.6046 82.1835 34.7968H60.1386C60.1386 39.7866 62.7484 41.7427 66.5046 41.7427C70.2602 41.7427 72.0234 39.6317 72.0234 37.1399ZM60.3931 28.5622H72.2595L72.1908 28.5189C72.1908 26.2762 70.4968 23.5727 66.3297 23.5727C62.1689 23.5727 60.3939 26.5504 60.3931 28.5622Z" fill="#69C07F"/>
<path d="M123.657 0.25293H134.247V48.2176H123.657V45.5775C121.116 47.9219 117.849 49.3326 114.285 49.3326C106.184 49.3326 99.6179 42.0523 99.6179 33.0715C99.6179 24.0907 106.184 16.8104 114.285 16.8104C117.849 16.8104 121.116 18.2218 123.657 20.5648V0.25293ZM123.657 33.0717C123.657 29.2068 120.912 26.0729 117.206 26.0729C113.5 26.0729 110.495 29.2068 110.495 33.0717C110.495 36.9374 113.5 40.0712 117.206 40.0712C120.912 40.0712 123.657 36.9366 123.657 33.0717Z" fill="#69C07F"/>
<path d="M176.818 17.7061H187.408V48.2284H176.818V45.5884C174.277 47.9328 171.01 49.3434 167.446 49.3434C159.345 49.3434 152.778 42.0631 152.778 33.0823C152.778 24.1016 159.345 16.8213 167.446 16.8213C171.01 16.8213 174.277 18.2327 176.818 20.5756V17.7061ZM176.818 33.0826C176.818 29.2177 174.073 26.0838 170.366 26.0838C166.66 26.0838 163.656 29.2177 163.656 33.0826C163.656 36.9482 166.66 40.082 170.366 40.082C174.073 40.082 176.818 36.9475 176.818 33.0826Z" fill="#69C07F"/>
<path d="M207.296 48.1948V17.7373H217.885V48.1948H207.296Z" fill="#69C07F"/>
<path d="M220.039 23.7796C220.039 20.4356 222.666 17.7236 225.908 17.7236C229.148 17.7236 231.775 20.4356 231.775 23.7796C231.775 27.1244 229.148 29.8357 225.908 29.8357C222.666 29.8357 220.039 27.1244 220.039 23.7796Z" fill="#8EBDE4"/>
<path d="M309.86 48.1838H297.775C297.775 48.1838 296.78 46.9529 295.208 45.0062C291.064 47.7441 286.516 48.9929 282.886 48.9929C276.811 48.9929 267.251 45.1166 267.251 36.2517C267.251 29.384 272.336 26.0165 277.792 23.348C276.191 21.3385 275.104 19.9561 274.909 19.6679C273.959 18.2669 272.981 16.6099 272.981 13.3614C272.981 6.115 279.471 2.58496 285.813 2.58496C291.68 2.58496 299.269 4.8517 299.269 13.8602C299.269 17.7953 295.789 22.5076 290.888 25.7645L295.109 30.7522C295.58 29.5393 295.963 28.1939 296.217 26.6918H306.371C305.708 31.5189 304.029 35.4726 301.786 38.6416L309.86 48.1838ZM289.594 38.0464C287.433 35.3648 285.103 32.4708 282.947 29.7871C279.309 31.684 278.153 33.182 278.153 35.9117C278.153 39.4672 280.514 40.5212 283.261 40.5212C284.551 40.5212 287.082 39.8665 289.594 38.0464ZM290.299 13.362C290.299 11.2259 288.232 9.1261 286.25 9.1261C283.834 9.1261 282.263 11.1395 282.263 13.0505C282.263 14.9616 283.032 16.4809 285.491 19.3869L285.592 19.506C289.636 17.0709 290.3 15.123 290.299 13.362Z" fill="#69C07F"/>
<path d="M380.983 33.0801C380.983 42.0609 374.416 49.3412 366.315 49.3412C362.751 49.3412 359.484 47.9304 356.943 45.5868V61.9962H346.353V17.769H356.943V20.5727C359.484 18.229 362.751 16.8184 366.315 16.8184C374.416 16.8183 380.983 24.0993 380.983 33.0801ZM370.106 33.0801C370.106 29.2152 367.101 26.0813 363.395 26.0813C359.689 26.0813 356.943 29.2152 356.943 33.0801C356.943 36.9457 359.689 40.0795 363.395 40.0795C367.101 40.0795 370.106 36.945 370.106 33.0801Z" fill="#69C07F"/>
<path d="M398.923 6.05596C398.923 2.71182 401.55 0 404.79 0C408.032 0 410.659 2.71182 410.659 6.05596C410.659 9.40074 408.032 12.1126 404.79 12.1126C401.55 12.1126 398.923 9.40074 398.923 6.05596Z" fill="#8EBDE4"/>
<path d="M399.464 48.2053V17.749H410.054V48.2064L399.464 48.2053Z" fill="#69C07F"/>
<path d="M461.222 28.3163V48.1904H450.632V32.2855C450.632 27.38 448.932 25.6296 445.89 25.6296C441.484 25.6296 440.51 29.1167 440.51 31.6234V48.1898H429.92V17.7324H440.51V21.4466C440.51 21.4466 443.092 17.0801 449.882 17.0801C455.927 17.0801 461.222 20.527 461.222 28.3163Z" fill="#69C07F"/>
<path d="M501.855 37.1399H511.978C511.978 47.7979 500.666 49.33 495.988 49.33C491.309 49.33 479.387 46.4085 479.387 33.1339C479.387 19.86 489.684 16.626 495.875 16.626C505.443 16.626 509.922 21.56 511.411 28.5617C511.828 30.5056 512.015 32.6046 512.015 34.7968H489.97C489.97 39.7866 492.58 41.7427 496.336 41.7427C500.092 41.7427 501.855 39.6317 501.855 37.1399ZM490.225 28.5622H502.091L502.023 28.5189C502.023 26.2762 500.329 23.5727 496.162 23.5727C492.001 23.5727 490.226 26.5504 490.225 28.5622Z" fill="#69C07F"/>
</svg>
