<svg width="256" height="49" viewBox="0 0 256 49" fill="none" xmlns="http://www.w3.org/2000/svg">
<path d="M28.3458 21.2464L28.6682 31.255C28.6989 32.0132 28.791 32.5724 28.9445 32.9326C29.1134 33.2927 29.5893 33.9846 30.3721 35.0082C30.6024 35.3115 30.7175 35.738 30.7175 36.2877C30.7175 37.5388 30.1112 38.4107 28.8985 38.9036C27.6857 39.3964 25.5212 39.6428 22.4048 39.6428C20.2864 39.6428 18.7896 39.4154 17.9146 38.9604C17.0089 38.4866 16.5561 37.7189 16.5561 36.6573C16.5561 36.2782 16.6021 36.0034 16.6942 35.8328C16.7863 35.6432 17.0934 35.1978 17.6153 34.4964C18.2293 33.7003 18.5363 31.0465 18.5363 26.5349C18.5363 23.919 18.2907 21.9856 17.7995 20.7346C17.4004 19.73 16.6635 19.2276 15.5889 19.2276C14.5604 19.2276 13.8543 19.6352 13.4705 20.4502C13.0867 21.2653 12.8948 22.7438 12.8948 24.8858V30.5156C12.8948 31.634 12.9486 32.4017 13.056 32.8187C13.1788 33.2357 13.5626 34.0414 14.2074 35.2356C14.3762 35.5768 14.4607 35.9654 14.4607 36.4014C14.4607 37.5197 13.8313 38.3443 12.5725 38.875C11.3137 39.4058 9.3488 39.6712 6.67773 39.6712C2.41009 39.6712 0.276269 38.5812 0.276269 36.4014C0.276269 35.9464 0.337674 35.6052 0.460481 35.3778C0.59864 35.1314 0.913336 34.7902 1.40458 34.3542C1.80371 33.9941 2.057 33.5865 2.16445 33.1316C2.27191 32.6578 2.37169 31.5109 2.4638 29.6912C2.57125 27.5302 2.62498 25.2651 2.62498 22.8956C2.62498 21.5877 2.54055 20.7347 2.37169 20.3366C2.21818 19.9196 1.75766 19.4173 0.990121 18.8296C0.330047 18.3179 0 17.6923 0 16.9531C0 16.1948 0.268653 15.5788 0.805941 15.1049C1.34323 14.6121 2.44849 13.996 4.12173 13.2568C5.59544 12.6123 7.0154 12.0721 8.38162 11.6361C9.74785 11.1811 10.6843 10.9537 11.1909 10.9537C11.6514 10.9537 12.0352 11.1622 12.3422 11.5792C12.6646 11.9962 12.8257 12.4891 12.8257 13.0578C12.8257 13.1146 12.8181 13.3516 12.8027 13.7686C12.7874 13.9202 12.7797 14.0529 12.7797 14.1666C12.7797 15.0765 13.0867 15.5315 13.7007 15.5315C14.0692 15.5315 14.4606 15.1713 14.8751 14.451C16.1953 12.1005 18.1141 10.9253 20.6315 10.9253C22.5657 10.9253 24.2236 11.5508 25.6052 12.8019C26.5724 13.6928 27.2478 14.7448 27.6316 15.958C28.0153 17.1522 28.2537 18.9149 28.3458 21.2464Z" fill="white"/>
<path d="M53.3764 26.3384H42.5542C42.0783 26.3384 41.8403 26.5943 41.8403 27.1061C41.8403 28.3381 42.3776 29.5039 43.4522 30.6034C44.5421 31.6838 45.7088 32.2241 46.9522 32.2241C47.6891 32.2241 48.5027 32.0535 49.393 31.7123C50.2987 31.3521 51.0433 30.9161 51.6266 30.4043C52.1485 29.9494 52.563 29.7219 52.87 29.7219C53.2691 29.7219 53.6606 30.0252 54.0443 30.6318C54.4281 31.2383 54.62 31.8639 54.62 32.5084C54.62 33.8732 53.9292 35.1906 52.5476 36.4606C50.1068 38.7163 47.2899 39.8441 44.0969 39.8441C40.8732 39.8441 38.1713 38.6879 35.9914 36.3753C34.9322 35.238 34.0572 33.8637 33.3664 32.2525C32.4607 30.1105 32.0078 27.8548 32.0078 25.4853C32.0078 22.3008 32.7907 19.4387 34.3565 16.8988C35.7074 14.7 37.4267 13.0603 39.5144 11.9799C41.0802 11.1648 42.7765 10.7573 44.6033 10.7573C47.52 10.7573 49.9991 11.7809 52.0407 13.8281C53.0692 14.8517 53.8981 16.0648 54.5275 17.4676C55.249 19.0598 55.6097 20.6142 55.6097 22.1306C55.6097 23.3627 55.4025 24.3768 54.988 25.173C54.5736 25.9502 54.0365 26.3384 53.3764 26.3384ZM43.1525 21.0214H45.4782C46.4607 21.0214 46.9519 20.4622 46.9519 19.3438C46.9519 18.3202 46.714 17.4862 46.2381 16.8417C45.7622 16.1971 45.1405 15.8749 44.3729 15.8749C43.5133 15.8749 42.8379 16.2919 42.3466 17.1259C41.8861 17.9031 41.6558 18.6898 41.6558 19.4859C41.6558 20.0546 41.7633 20.4527 41.9782 20.6801C42.2084 20.9076 42.5999 21.0214 43.1525 21.0214Z" fill="white"/>
<path d="M83.4002 34.161L81.0285 29.4695C80.4758 28.408 80.1151 27.773 79.9462 27.5645C79.7927 27.356 79.5855 27.2517 79.3245 27.2517C78.7719 27.2517 78.2039 27.8772 77.6206 29.1283L73.7751 37.3169C73.0383 38.8902 72.2093 39.6769 71.2883 39.6769C70.7203 39.6769 70.1983 39.44 69.7225 38.9661C69.2466 38.4732 68.7323 37.6487 68.1797 36.4924L61.2716 22.3041C60.1202 20.0104 59.2222 18.513 58.5775 17.8116C58.2704 17.5083 57.7101 17.2145 56.8965 16.9302C56.5588 16.7975 56.2748 16.5416 56.0445 16.1625C55.8296 15.7644 55.7222 15.3284 55.7222 14.8545C55.7222 13.395 56.6355 12.3714 58.4623 11.7838C60.3044 11.2151 62.3155 10.9307 64.4954 10.9307C69.3925 10.9307 71.8411 12.0586 71.8411 14.3143C71.8411 14.7313 71.6032 15.3663 71.1273 16.2193C71.0352 16.3899 70.9891 16.57 70.9891 16.7595C70.9891 17.1766 71.3498 18.2096 72.0713 19.8587C72.8696 21.7353 73.5604 22.6736 74.1437 22.6736C74.4814 22.6736 74.9113 22.1997 75.4332 21.2519C75.9551 20.3041 76.2161 19.5364 76.2161 18.9488C76.2161 18.3612 76.101 17.8968 75.8707 17.5556C75.6404 17.1954 75.0955 16.6363 74.2358 15.878C73.7139 15.4231 73.453 14.8829 73.453 14.2573C73.453 12.7788 74.681 11.8121 77.1372 11.3572C78.6262 11.0728 80.3763 10.9307 82.3874 10.9307C84.7055 10.9307 86.3787 11.1771 87.4072 11.6699C88.4357 12.1438 88.95 12.921 88.95 14.0015C88.95 14.4375 88.8886 14.7881 88.7658 15.0535C88.643 15.3189 88.3129 15.7928 87.7756 16.4752C87.6068 16.7026 87.5224 16.9965 87.5224 17.3566C87.5224 17.8684 87.8754 18.9489 88.5816 20.598C89.1956 22.0386 89.7559 22.7589 90.2625 22.7589C90.8151 22.7589 91.5136 21.8396 92.3579 20.0009C92.9719 18.6171 93.279 17.6978 93.279 17.2429C93.279 16.8827 93.0333 16.3235 92.5421 15.5653C92.189 15.0345 92.0125 14.4564 92.0125 13.8308C92.0125 12.8451 92.3732 12.1627 93.0947 11.7836C94.1079 11.2339 95.5816 10.9591 97.5158 10.9591C98.8206 10.9591 99.9796 11.0823 100.993 11.3287C101.576 11.4803 102.052 11.7931 102.42 12.267C102.789 12.7219 102.973 13.2527 102.973 13.8592C102.973 14.4658 102.758 14.9776 102.328 15.3946C102.252 15.4894 101.714 15.7547 100.716 16.1907C100.148 16.4561 99.6802 16.8352 99.3118 17.3281C98.9434 17.8209 98.4982 18.7023 97.9763 19.9723L92.2198 33.7343C90.5312 37.7529 89.0422 39.7622 87.7527 39.7622C87.2001 39.7622 86.586 39.3357 85.9106 38.4827C85.2505 37.6107 84.4139 36.1701 83.4007 34.1608L83.4002 34.161Z" fill="white"/>
<path d="M116.096 1.97241L115.797 13.0616C115.797 13.327 115.797 13.5355 115.797 13.6871C115.797 14.0662 115.897 14.2558 116.096 14.2558C116.204 14.2558 116.511 13.9999 117.017 13.4881C118.814 11.6683 120.794 10.7585 122.958 10.7585C125.108 10.7585 127.003 11.7157 128.646 13.6302C130.703 16.0376 131.731 19.1748 131.731 23.0417C131.731 28.5577 130.066 32.9649 126.734 36.2634C124.34 38.6518 121.531 39.846 118.307 39.846C116.71 39.846 115.267 39.5901 113.978 39.0783C112.704 38.5855 111.307 37.7325 109.787 36.5193C109.557 36.3487 109.373 36.2634 109.234 36.2634C109.066 36.2634 108.59 36.4435 107.807 36.8036C107.408 36.9932 106.939 37.088 106.402 37.088C105.45 37.088 104.975 36.7089 104.975 35.9507C104.975 35.7042 105.013 35.4199 105.09 35.0976C105.397 33.8655 105.604 32.3396 105.711 30.5199C105.819 28.7001 105.873 25.819 105.873 21.8764V14.0288C105.873 12.0764 105.811 10.8537 105.688 10.3609C105.566 9.86805 105.22 9.47944 104.652 9.1951C103.854 8.77807 103.301 8.37055 102.994 7.97251C102.687 7.55549 102.534 7.03419 102.534 6.40866C102.534 5.13866 103.631 3.8971 105.826 2.68395C107.024 2.03948 108.513 1.48029 110.294 1.00637C112.09 0.513521 113.625 0.26709 114.899 0.26709C115.713 0.26709 116.112 0.835742 116.096 1.97306L116.096 1.97241ZM118.077 19.3169C117.248 19.3169 116.649 19.6676 116.281 20.369C115.989 20.8997 115.843 21.9802 115.843 23.6104C115.843 28.0648 115.966 31.0693 116.212 32.6239C116.427 34.0645 117.079 34.7848 118.169 34.7848C119.289 34.7848 120.141 34.1972 120.725 33.0219C121.308 31.8467 121.6 30.1407 121.6 27.9039C121.6 24.6057 121.109 22.1984 120.126 20.682C119.558 19.81 118.875 19.3548 118.077 19.3169Z" fill="white"/>
<path d="M146.032 12.376V27.7866C146.032 31.0848 146.914 32.734 148.68 32.734C149.125 32.734 149.562 32.5823 149.992 32.279C150.422 31.9568 150.721 31.5682 150.89 31.1132C151.228 30.2034 151.397 28.1751 151.397 25.0285C151.397 21.9198 151.312 19.7968 151.143 18.6594C151.082 18.1856 150.975 17.8444 150.821 17.6359C150.667 17.4084 150.376 17.1525 149.946 16.8682C149.071 16.2995 148.633 15.5792 148.633 14.7073C148.633 13.532 149.386 12.717 150.89 12.262C153.745 11.3901 156.562 10.9541 159.341 10.9541C160.891 10.9541 161.666 11.9682 161.666 13.9964C161.666 14.2049 161.659 14.6314 161.643 15.2759C161.613 16.1858 161.59 17.2947 161.574 18.6026V31.1417C161.574 31.7862 162.02 32.3738 162.91 32.9045C163.662 33.3595 164.038 34.0229 164.038 34.8949C164.038 36.6009 162.403 37.9183 159.134 38.8471C157.215 39.3968 155.357 39.6717 153.561 39.6717C152.824 39.6717 152.318 39.5674 152.041 39.3589C151.78 39.1504 151.627 38.7429 151.581 38.1363C151.504 36.9611 151.212 36.3734 150.706 36.3734C150.521 36.3734 150.353 36.4303 150.199 36.544C150.046 36.6388 149.577 37.0179 148.795 37.6814C147.244 38.9893 145.578 39.6432 143.798 39.6432C140.85 39.6432 138.77 38.5912 137.558 36.4872C136.529 34.7243 136.015 31.7578 136.015 27.5875C136.015 26.0332 136.023 24.7063 136.038 23.6069C136.038 22.9624 136.038 22.5264 136.038 22.299C136.038 20.6688 135.915 19.4746 135.67 18.7164C135.439 17.9392 135.01 17.3326 134.38 16.8966C133.781 16.5175 133.398 16.2142 133.229 15.9868C133.075 15.7593 132.999 15.4466 132.999 15.0485C132.999 13.6079 133.881 12.6507 135.647 12.1767C138.655 11.3617 141.664 10.9541 144.673 10.9541C145.579 10.9541 146.032 11.4282 146.032 12.376Z" fill="white"/>
<path d="M192.294 2.54127V28.5007C192.294 29.9793 192.34 30.927 192.432 31.344C192.539 31.7611 192.823 32.1686 193.284 32.5666C193.837 33.0405 194.205 33.4575 194.389 33.8177C194.589 34.1778 194.689 34.6138 194.689 35.1256C194.689 36.6421 193.453 37.7983 190.981 38.5945C188.755 39.2958 186.53 39.6465 184.304 39.6465C183.813 39.6465 183.49 39.5517 183.337 39.3622C183.198 39.1916 183.106 38.7651 183.06 38.0827C182.984 37.116 182.707 36.6326 182.231 36.6326C181.97 36.6326 181.564 36.917 181.011 37.4857C179.445 39.059 177.703 39.8456 175.784 39.8456C173.405 39.8456 171.263 38.7557 169.359 36.5758C168.239 35.2679 167.333 33.7609 166.642 32.0549C165.721 29.8371 165.261 27.5909 165.261 25.3163C165.261 22.6436 165.859 20.0657 167.057 17.5826C168.162 15.2889 169.666 13.5261 171.57 12.294C173.166 11.2704 174.74 10.7586 176.29 10.7586C178.071 10.7586 179.668 11.2515 181.08 12.2372C181.31 12.3888 181.494 12.4647 181.633 12.4647C182.124 12.4647 182.369 11.6496 182.369 10.0194C182.369 9.31803 182.231 8.78728 181.955 8.42716C181.694 8.04805 181.218 7.72581 180.527 7.46045C179.56 7.08134 179.077 6.41789 179.077 5.4701C179.077 4.08636 180.19 3.00589 182.415 2.2287C186.345 0.882868 188.978 0.209961 190.313 0.209961C191.634 0.209961 192.294 0.986925 192.294 2.54127ZM179.791 16.8429C178.793 16.8429 178.002 17.4968 177.419 18.8047C176.636 20.5486 176.245 22.8423 176.245 25.6857C176.245 28.2637 176.621 30.2066 177.373 31.5145C177.91 32.4623 178.639 32.9362 179.56 32.9362C180.558 32.9362 181.28 32.2254 181.725 30.8037C182.185 29.3631 182.416 27.0505 182.416 23.8658C182.416 20.9466 182.147 19.0037 181.61 18.037C181.195 17.2788 180.589 16.8808 179.791 16.8429Z" fill="white"/>
<path d="M222.962 2.54127V28.5007C222.962 29.9793 223.008 30.927 223.1 31.344C223.208 31.7611 223.492 32.1686 223.952 32.5666C224.505 33.0405 224.873 33.4575 225.058 33.8177C225.257 34.1778 225.357 34.6138 225.357 35.1256C225.357 36.6421 224.121 37.7983 221.65 38.5945C219.424 39.2958 217.198 39.6465 214.972 39.6465C214.481 39.6465 214.159 39.5517 214.005 39.3622C213.867 39.1916 213.775 38.7651 213.729 38.0827C213.652 37.116 213.376 36.6326 212.9 36.6326C212.639 36.6326 212.232 36.917 211.679 37.4857C210.114 39.059 208.371 39.8456 206.452 39.8456C204.073 39.8456 201.931 38.7557 200.028 36.5758C198.907 35.2679 198.002 33.7609 197.311 32.0549C196.39 29.8371 195.929 27.5909 195.929 25.3163C195.929 22.6436 196.528 20.0657 197.725 17.5826C198.831 15.2889 200.335 13.5261 202.238 12.294C203.835 11.2704 205.408 10.7586 206.959 10.7586C208.74 10.7586 210.336 11.2515 211.748 12.2372C211.979 12.3888 212.163 12.4647 212.301 12.4647C212.792 12.4647 213.038 11.6496 213.038 10.0194C213.038 9.31803 212.9 8.78728 212.623 8.42716C212.362 8.04805 211.886 7.72581 211.196 7.46045C210.229 7.08134 209.745 6.41789 209.745 5.4701C209.745 4.08636 210.858 3.00589 213.084 2.2287C217.014 0.882868 219.646 0.209961 220.982 0.209961C222.302 0.209961 222.962 0.986925 222.962 2.54127ZM210.459 16.8429C209.461 16.8429 208.671 17.4968 208.087 18.8047C207.304 20.5486 206.913 22.8423 206.913 25.6857C206.913 28.2637 207.289 30.2066 208.041 31.5145C208.579 32.4623 209.308 32.9362 210.229 32.9362C211.227 32.9362 211.948 32.2254 212.393 30.8037C212.854 29.3631 213.084 27.0505 213.084 23.8658C213.084 20.9466 212.815 19.0037 212.278 18.037C211.864 17.2788 211.257 16.8808 210.459 16.8429Z" fill="white"/>
<path d="M248.664 24.7468L245.624 35.0679C244.872 37.6269 244.112 39.712 243.345 41.3232C242.592 42.9534 241.733 44.3372 240.766 45.4745C238.77 47.825 236.367 49.0002 233.558 49.0002C231.286 49.0002 229.444 48.2609 228.032 46.7824C226.942 45.6451 226.397 44.195 226.397 42.4322C226.397 40.9726 226.773 39.7499 227.525 38.7642C228.293 37.7596 229.229 37.2573 230.334 37.2573C231.44 37.2573 232.33 37.7122 233.006 38.6221C233.328 39.0391 233.543 39.4087 233.65 39.731C233.758 40.0532 233.919 40.7641 234.134 41.8635C234.303 42.6975 234.686 43.1146 235.285 43.1146C235.761 43.1146 236.16 42.8587 236.483 42.3469C236.805 41.8351 236.966 41.2001 236.966 40.4419C236.966 39.551 236.567 38.063 235.769 35.9779L230.22 21.3877C229.636 19.8713 229.199 18.9235 228.907 18.5444C228.616 18.1653 227.971 17.7009 226.973 17.1512C226.666 16.9996 226.397 16.7058 226.167 16.2698C225.952 15.8148 225.845 15.3789 225.845 14.9619C225.845 13.2748 227.203 12.128 229.92 11.5214C231.732 11.1233 233.796 10.9243 236.114 10.9243C237.742 10.9243 239.023 11.1328 239.96 11.5499C241.219 12.0996 241.848 13.0379 241.848 14.3648C241.848 14.8386 241.671 15.3978 241.318 16.0423C240.981 16.6489 240.812 17.1891 240.812 17.663C240.812 18.118 240.889 18.5919 241.042 19.0847C241.211 19.5776 241.556 20.4116 242.078 21.5868C242.662 22.9137 243.176 23.5772 243.621 23.5772C244.097 23.5772 244.588 22.999 245.095 21.8427C245.601 20.6675 245.855 19.5396 245.855 18.4592C245.855 17.5872 245.663 16.8764 245.279 16.3267C244.696 15.4737 244.404 14.7439 244.404 14.1373C244.404 13.1706 244.926 12.4029 245.97 11.8342C247.014 11.2466 248.411 10.9528 250.161 10.9528C253.415 10.9528 255.042 11.9195 255.042 13.853C255.042 14.5543 254.873 15.123 254.536 15.5589C254.213 15.976 253.615 16.374 252.74 16.7531C252.003 17.0943 251.419 17.663 250.99 18.4591C250.314 19.7291 249.539 21.8237 248.664 24.7429L248.664 24.7468Z" fill="white"/>
</svg>
